# Blender 4.0.2
# www.blender.org
mtllib Crate.mtl
o Crate
v -1.200000 1.000000 -1.000000
v -1.200000 -1.000000 1.000000
v 1.000000 1.000000 -1.200000
v -1.000000 -1.000000 -1.200000
v -1.000000 1.000000 -1.200000
v 1.200000 -1.000000 -1.000000
v 1.200000 1.000000 1.000000
v 1.000000 -1.000000 -1.200000
v 1.200000 -1.000000 1.000000
v 1.000000 -1.000000 1.200000
v -1.000000 1.000000 1.200000
v -1.200000 1.000000 1.000000
v -1.200000 -1.200000 -1.000000
v -1.200000 -1.200000 1.000000
v 1.000000 -1.200000 -1.200000
v -1.000000 -1.200000 -1.200000
v 1.200000 -1.200000 -1.000000
v 1.200000 -1.200000 1.000000
v 1.000000 -1.200000 1.200000
v -1.000000 -1.200000 1.200000
v -1.200000 1.200000 -1.000000
v -1.200000 1.200000 1.000000
v 1.000000 1.200000 -1.200000
v -1.000000 1.200000 -1.200000
v 1.200000 1.200000 -1.000000
v 1.200000 1.200000 1.000000
v 1.000000 1.200000 1.200000
v -1.000000 1.200000 1.200000
v 1.200000 1.000000 1.200000
v 1.200000 -1.000000 1.200000
v 0.999865 -1.200000 -1.000000
v 1.200000 -1.200000 1.200000
v 1.200000 1.200000 1.200000
v -1.200000 1.000000 1.200000
v -1.200000 -1.000000 1.200000
v -1.000000 -1.200000 1.000000
v -1.200000 -1.200000 1.200000
v -1.200000 1.200000 1.200000
v -1.200000 1.000000 -1.200000
v -1.200000 -1.000000 -1.200000
v 0.998510 -1.200000 1.000000
v -1.200000 -1.200000 -1.200000
v -1.200000 1.200000 -1.200000
v 1.200000 1.000000 -1.200000
v 1.200000 -1.000000 -1.200000
v -1.000000 -1.200000 -1.000000
v 1.200000 -1.200000 -1.200000
v 1.200000 1.200000 -1.200000
v 1.000000 1.200000 1.000000
v -1.000000 1.200000 1.000000
v -1.000000 1.200000 -1.000000
v 1.000000 1.200000 -1.000000
v -1.200000 -1.000000 -0.800658
v -1.200000 -0.800658 -1.000000
v 1.000000 1.000000 1.200000
v -1.000000 -1.000000 1.200000
v -1.200000 1.000000 0.800658
v -1.200000 0.800658 1.000000
v 1.200000 1.000000 -1.000000
v -1.200000 -1.000000 -1.000000
v 0.800658 -1.000000 -1.200000
v 1.000000 -0.800658 -1.200000
v -1.100000 -1.000000 1.000000
v -1.100000 1.000000 -1.000000
v -0.800658 1.000000 -1.200000
v -1.000000 0.800658 -1.200000
v -1.100000 0.800658 1.000000
v -1.100000 -1.000000 -0.800658
v 1.200000 1.000000 -0.800658
v 1.200000 0.800658 -1.000000
v -1.100000 -0.800658 -1.000000
v -1.100000 1.000000 0.800658
v 1.200000 -1.000000 0.800658
v 1.200000 -0.800658 1.000000
v -1.000000 1.000000 1.100000
v 1.000000 -1.000000 1.100000
v 0.800658 1.000000 1.200000
v 1.000000 0.800658 1.200000
v -1.000000 -0.800658 1.100000
v 0.800658 1.000000 1.100000
v -0.800658 -1.000000 1.200000
v -1.000000 -0.800658 1.200000
v 1.000000 0.800658 1.100000
v -0.800658 -1.000000 1.100000
v 0.800658 -1.000000 -1.100000
v -1.000000 0.800658 -1.100000
v -0.800658 1.000000 -1.100000
v 1.000000 -0.800658 -1.100000
v -1.000000 -1.000000 -1.100000
v 1.000000 1.000000 -1.100000
v 1.100000 -1.000000 0.800658
v 1.100000 0.800658 -1.000000
v 1.100000 1.000000 -0.800658
v 1.100000 -0.800658 1.000000
v 1.100000 -1.000000 -1.000000
v 1.100000 1.000000 1.000000
v 1.000000 1.100000 -1.000000
v 1.000000 1.100000 1.000000
v -1.000000 1.100000 1.000000
v -1.000000 1.100000 -1.000000
v 0.998510 -1.100000 1.000000
v -1.000000 -1.100000 1.000000
v -1.000000 -1.100000 -1.000000
v 0.999865 -1.100000 -1.000000
vn 1.0000 -0.0000 -0.0000
vn -0.0000 -0.0000 -1.0000
vn -0.0000 -0.7071 0.7071
vn -0.0000 -0.0000 1.0000
vn -1.0000 -0.0000 -0.0000
vn -0.0000 -1.0000 -0.0000
vn -0.7071 0.7071 -0.0000
vn -0.0000 0.7071 0.7071
vn -0.0000 1.0000 -0.0000
vn -1.0000 -0.0000 -0.0007
vn 0.7071 -0.7071 -0.0000
vn -0.7071 -0.7071 -0.0000
vn -0.0000 0.7071 -0.7071
vn -0.0000 -0.7071 -0.7071
vn 0.7071 0.7071 -0.0000
vt 0.431320 0.437365
vt 0.431320 0.474336
vt 0.061607 0.474336
vt 0.061607 0.437365
vt 0.394471 0.437365
vt 0.431549 0.437365
vt 0.468520 0.437365
vt 0.468520 0.067652
vt 0.431549 0.067652
vt 0.431549 0.400515
vt 0.431549 0.474336
vt 0.468520 0.474336
vt 0.498097 0.605268
vt 0.968837 0.605268
vt 0.968837 0.623754
vt 0.498097 0.623754
vt 0.431312 0.437365
vt 0.468284 0.437365
vt 0.468284 0.067652
vt 0.431312 0.067652
vt 0.431312 0.400515
vt 0.098457 0.067652
vt 0.431320 0.400515
vt 0.061607 0.104501
vt 0.061607 0.067652
vt 0.968955 0.623654
vt 0.498215 0.623654
vt 0.733585 0.859024
vt 0.061607 0.030680
vt 0.431320 0.030680
vt 0.431320 0.067652
vt 0.061599 0.067652
vt 0.061599 0.030680
vt 0.024628 0.030680
vt 0.024628 0.067652
vt 0.061701 0.030680
vt 0.061701 0.067652
vt 0.024730 0.067652
vt 0.024730 0.030680
vt 0.485143 0.636726
vt 0.720513 0.872096
vt 0.968955 0.605169
vt 0.498215 0.605169
vt 0.431312 0.030680
vt 0.468284 0.030680
vt 0.024636 0.474336
vt 0.024636 0.437365
vt 0.024628 0.437365
vt 0.061599 0.437365
vt 0.061599 0.104501
vt 0.431414 0.030680
vt 0.431414 0.067652
vt 0.098551 0.067652
vt 0.098449 0.067652
vt 0.394463 0.437365
vt 0.061599 0.474336
vt 0.024628 0.474336
vt 0.061701 0.437365
vt 0.061701 0.474336
vt 0.024730 0.474336
vt 0.024730 0.437365
vt 0.982026 0.636806
vt 0.746656 0.872176
vt 0.733585 0.859104
vt 0.968955 0.623735
vt 0.468386 0.437365
vt 0.431414 0.437365
vt 0.431414 0.400515
vt 0.468386 0.067652
vt 0.061836 0.474336
vt 0.061836 0.437365
vt 0.024864 0.437365
vt 0.024864 0.474336
vt 0.061836 0.104501
vt 0.394699 0.437365
vt 0.098685 0.067652
vt 0.061836 0.067652
vt 0.498215 0.605268
vt 0.968955 0.605268
vt 0.968955 0.623754
vt 0.498215 0.623754
vt 0.981909 0.636825
vt 0.746539 0.872195
vt 0.733467 0.859124
vt 0.468386 0.030680
vt 0.431414 0.474336
vt 0.394565 0.437365
vt 0.733585 0.859124
vt 0.981909 0.636744
vt 0.746539 0.872114
vt 0.733467 0.859042
vt 0.968837 0.623673
vt 0.431549 0.030680
vt 0.468520 0.030680
vt 0.720513 0.872195
vt 0.485143 0.636825
vt 0.024636 0.067652
vt 0.024636 0.030680
vt 0.468292 0.030680
vt 0.468292 0.067652
vt 0.573340 0.474282
vt 0.536368 0.474282
vt 0.536368 0.437311
vt 0.573340 0.437311
vt 0.573340 0.474567
vt 0.573340 0.437320
vt 0.943053 0.437571
vt 0.943053 0.474567
vt 0.980024 0.067883
vt 0.943053 0.067883
vt 0.943053 0.030911
vt 0.980024 0.030911
vt 0.573340 0.067883
vt 0.536368 0.437596
vt 0.536368 0.067883
vt 0.573340 0.030911
vt 0.536368 0.030911
vt 0.536368 0.474567
vt 0.980024 0.437596
vt 0.980024 0.474567
vt 0.980024 0.067598
vt 0.943053 0.067598
vt 0.943053 0.030627
vt 0.980024 0.030627
vt 0.573340 0.030627
vt 0.573340 0.067598
vt 0.536368 0.067598
vt 0.536368 0.030627
vt 0.943053 0.437311
vt 0.943053 0.474282
vt 0.980024 0.437311
vt 0.980024 0.474282
vt 0.468385 0.474336
vt 0.061836 0.030680
vt 0.024864 0.030680
vt 0.024864 0.067652
vt 0.468292 0.437365
vt 0.468292 0.474336
vt 0.746656 0.872096
vt 0.982026 0.636726
vt 0.024759 0.926410
vt 0.025009 0.556697
vt 0.043495 0.556710
vt 0.043245 0.926423
vt 0.043121 0.538224
vt 0.412835 0.538224
vt 0.412835 0.556710
vt 0.043121 0.556710
vt 0.061701 0.104501
vt 0.981909 0.636543
vt 0.746539 0.871913
vt 0.733467 0.858841
vt 0.968837 0.623471
vt 0.431312 0.474336
vt 0.468284 0.474336
vt 0.498097 0.604922
vt 0.968837 0.604922
vt 0.968837 0.623407
vt 0.498097 0.623408
vt 0.720396 0.871849
vt 0.485026 0.636479
vt 0.733467 0.858778
vt 0.498097 0.605187
vt 0.968837 0.605187
vt 0.498097 0.623673
vt 0.498097 0.623471
vt 0.982026 0.636828
vt 0.746656 0.872198
vt 0.733585 0.859126
vt 0.968955 0.623756
vt 0.981909 0.636479
vt 0.746539 0.871849
vt 0.720396 0.871913
vt 0.485026 0.636543
vt 0.498215 0.623735
vt 0.720513 0.872176
vt 0.485143 0.636806
vt 0.720396 0.872114
vt 0.485026 0.636744
vt 0.720396 0.872195
vt 0.485026 0.636825
vt 0.498097 0.604986
vt 0.968837 0.604986
vt 0.982026 0.636825
vt 0.746656 0.872195
vt 0.498215 0.605271
vt 0.968955 0.605271
vt 0.498215 0.623756
vt 0.498215 0.605249
vt 0.968955 0.605249
vt 0.720513 0.872198
vt 0.485143 0.636828
vt 0.412835 0.926423
vt 0.043121 0.926423
vt 0.412835 0.944908
vt 0.043121 0.944908
vt 0.431320 0.556710
vt 0.431320 0.926423
vt 0.024636 0.926423
vt 0.024636 0.556710
vt 0.412933 0.926423
vt 0.412933 0.556710
vt 0.043495 0.538224
vt 0.412933 0.538224
vt 0.412933 0.944908
vt 0.043245 0.944908
vt 0.431418 0.556710
vt 0.431418 0.926423
s 0
usemtl Material
f 59/1/1 25/2/1 26/3/1 7/4/1 69/5/1
f 5/6/2 24/7/2 23/8/2 3/9/2 65/10/2
f 5/6/2 39/11/2 43/12/2 24/7/2
f 58/13/3 53/14/3 68/15/3 67/16/3
f 56/17/4 20/18/4 19/19/4 10/20/4 81/21/4
f 73/22/1 70/23/1 59/1/1 69/5/1 74/24/1 9/25/1
f 79/26/4 80/27/4 75/28/4
f 9/25/1 18/29/1 17/30/1 6/31/1 73/22/1
f 55/32/4 29/33/4 33/34/4 27/35/4
f 22/36/5 12/37/5 34/38/5 38/39/5
f 77/40/6 11/41/6 75/28/6 80/27/6
f 82/42/7 77/43/7 80/27/7 79/26/7
f 30/44/4 10/20/4 19/19/4 32/45/4
f 7/4/1 26/3/1 33/46/1 29/47/1
f 55/32/4 27/35/4 28/48/4 11/49/4 77/50/4
f 12/37/5 22/36/5 21/51/5 1/52/5 57/53/5
f 81/21/4 78/54/4 55/32/4 77/50/4 82/55/4 56/17/4
f 34/56/4 11/49/4 28/48/4 38/57/4
f 2/58/5 14/59/5 37/60/5 35/61/5
f 65/62/6 3/63/6 90/64/6 87/65/6
f 40/66/5 60/67/5 54/68/5 1/52/5 39/69/5
f 40/70/2 4/71/2 16/72/2 42/73/2
f 61/74/2 66/75/2 5/6/2 65/10/2 62/76/2 8/77/2
f 74/78/8 69/79/8 93/80/8 94/81/8
f 53/82/9 2/83/9 63/84/9 68/15/9
f 1/52/5 21/51/5 43/85/5 39/69/5
f 60/67/5 13/86/5 14/59/5 2/58/5 53/87/5
f 94/81/1 93/80/1 96/88/1
f 61/89/9 4/90/9 89/91/9 85/92/9
f 44/93/2 3/9/2 23/8/2 48/94/2
f 7/95/2 74/96/2 94/81/2 96/88/2
f 9/25/1 30/97/1 32/98/1 18/29/1
f 6/31/1 17/30/1 47/99/1 45/100/1
f 22/101/9 38/102/9 28/103/9 50/104/9
f 18/105/6 41/106/6 31/107/6 17/108/6
f 16/109/6 46/110/6 13/111/6 42/112/6
f 36/113/6 41/106/6 19/114/6 20/115/6
f 14/116/6 36/113/6 20/115/6 37/117/6
f 19/114/6 41/106/6 18/105/6 32/118/6
f 15/119/6 31/107/6 46/110/6 16/109/6
f 17/108/6 31/107/6 15/119/6 47/120/6
f 13/111/6 46/110/6 36/113/6 14/116/6
f 23/121/9 52/122/9 25/123/9 48/124/9
f 26/125/9 49/126/9 27/127/9 33/128/9
f 50/104/9 28/103/9 27/127/9 49/126/9
f 50/104/9 51/129/9 21/130/9 22/101/9
f 25/123/9 52/122/9 49/126/9 26/125/9
f 21/130/9 51/129/9 24/131/9 43/132/9
f 51/129/9 52/122/9 23/121/9 24/131/9
f 13/86/5 60/67/5 40/66/5 42/133/5
f 8/77/2 45/134/2 47/135/2 15/136/2
f 59/1/1 44/137/1 48/138/1 25/2/1
f 11/139/1 82/140/1 79/26/1 75/28/1
f 31/141/10 41/142/10 101/143/10 104/144/10
f 51/145/1 50/146/1 99/147/1 100/148/1
f 54/68/5 60/67/5 53/87/5 58/149/5 12/37/5 57/53/5
f 57/150/6 1/151/6 64/152/6 72/153/6
f 56/17/4 35/154/4 37/155/4 20/18/4
f 78/156/11 81/157/11 84/158/11 83/159/11
f 10/160/5 78/161/5 83/159/5 76/162/5
f 8/77/2 62/76/2 3/9/2 44/93/2 45/134/2
f 5/6/2 66/75/2 4/71/2 40/70/2 39/11/2
f 59/1/1 70/23/1 6/31/1 45/100/1 44/137/1
f 9/25/1 74/24/1 7/4/1 29/47/1 30/97/1
f 55/32/4 78/54/4 10/20/4 30/44/4 29/33/4
f 56/17/4 82/55/4 11/49/4 34/56/4 35/154/4
f 34/38/5 12/37/5 58/149/5 2/58/5 35/61/5
f 66/163/12 61/164/12 85/92/12 86/165/12
f 71/166/5 72/153/5 64/152/5
f 73/167/9 6/168/9 95/169/9 91/170/9
f 76/162/4 83/159/4 84/158/4
f 63/84/5 67/16/5 68/15/5
f 81/171/9 10/172/9 76/162/9 84/158/9
f 1/173/4 54/174/4 71/166/4 64/152/4
f 88/175/2 87/65/2 90/64/2
f 3/176/5 62/177/5 88/175/5 90/64/5
f 4/178/1 66/179/1 86/165/1 89/91/1
f 2/180/2 58/181/2 67/16/2 63/84/2
f 89/91/2 86/165/2 85/92/2
f 54/182/13 57/183/13 72/153/13 71/166/13
f 69/184/6 7/185/6 96/88/6 93/80/6
f 70/186/14 73/187/14 91/170/14 92/188/14
f 62/189/15 65/190/15 87/65/15 88/175/15
f 6/191/4 70/192/4 92/188/4 95/169/4
f 95/169/1 92/188/1 91/170/1
f 8/77/2 15/136/2 16/72/2 4/71/2 61/74/2
f 98/193/9 97/194/9 100/148/9 99/147/9
f 49/195/5 52/196/5 97/194/5 98/193/5
f 50/197/2 49/198/2 98/193/2 99/147/2
f 52/199/4 51/200/4 100/148/4 97/194/4
f 103/201/6 104/144/6 101/143/6 102/202/6
f 41/203/2 36/204/2 102/202/2 101/143/2
f 46/205/4 31/206/4 104/144/4 103/201/4
f 36/207/1 46/208/1 103/201/1 102/202/1
