# Blender 4.0.2
# www.blender.org
mtllib Fence.mtl
o Fence
v 0.000000 2.800000 2.000000
v 0.000000 2.800000 -2.000000
v 0.100000 2.826795 2.000000
v 0.100000 2.826795 -2.000000
v 0.173205 2.900000 2.000000
v 0.173205 2.900000 -2.000000
v 0.200000 3.000000 2.000000
v 0.200000 3.000000 -2.000000
v 0.173205 3.100000 2.000000
v 0.173205 3.100000 -2.000000
v 0.100000 3.173205 2.000000
v 0.100000 3.173205 -2.000000
v 0.000000 3.200000 2.000000
v 0.000000 3.200000 -2.000000
v -0.100000 3.173205 2.000000
v -0.100000 3.173205 -2.000000
v -0.173205 3.100000 2.000000
v -0.173205 3.100000 -2.000000
v -0.200000 3.000000 2.000000
v -0.200000 3.000000 -2.000000
v -0.173205 2.900000 2.000000
v -0.173205 2.900000 -2.000000
v -0.100000 2.826795 2.000000
v -0.100000 2.826795 -2.000000
v -0.144000 3.000000 -2.000000
v -0.144000 0.000000 -2.000000
v -0.124708 3.000000 -1.910000
v -0.124708 0.000000 -1.910000
v -0.072000 3.000000 -1.844115
v -0.072000 0.000000 -1.844115
v 0.000000 3.000000 -1.820000
v 0.000000 0.000000 -1.820000
v 0.072000 3.000000 -1.844115
v 0.072000 0.000000 -1.844115
v 0.124708 3.000000 -1.910000
v 0.124708 0.000000 -1.910000
v -0.000000 0.000000 1.820000
v -0.000000 3.000000 1.820000
v 0.072000 0.000000 1.844115
v 0.072000 3.000000 1.844115
v 0.124708 0.000000 1.910000
v 0.124708 3.000000 1.910000
v 0.144000 0.000000 2.000000
v 0.144000 3.000000 2.000000
v 0.144000 3.000000 -2.000000
v 0.144000 0.000000 -2.000000
v -0.144000 0.000000 2.000000
v -0.144000 3.000000 2.000000
v -0.124708 0.000000 1.910000
v -0.124708 3.000000 1.910000
v -0.072000 0.000000 1.844115
v -0.072000 3.000000 1.844115
v -0.000000 0.000000 -0.180000
v -0.000000 3.000000 -0.180000
v 0.072000 0.000000 -0.155885
v 0.072000 3.000000 -0.155885
v 0.124708 0.000000 -0.090000
v 0.124708 3.000000 -0.090000
v 0.144000 0.000000 0.000000
v 0.144000 3.000000 0.000000
v 0.124708 0.000000 0.090000
v 0.124708 3.000000 0.090000
v 0.072000 0.000000 0.155885
v 0.072000 3.000000 0.155885
v -0.000000 0.000000 0.180000
v -0.000000 3.000000 0.180000
v -0.072000 0.000000 0.155885
v -0.072000 3.000000 0.155885
v -0.124708 0.000000 0.090000
v -0.124708 3.000000 0.090000
v -0.144000 0.000000 0.000000
v -0.144000 3.000000 0.000000
v -0.124708 0.000000 -0.090000
v -0.124708 3.000000 -0.090000
v -0.072000 0.000000 -0.155885
v -0.072000 3.000000 -0.155885
vn -0.0000 -1.0000 -0.0000
vn 0.5000 -0.8660 -0.0000
vn 0.8660 -0.5000 -0.0000
vn 1.0000 -0.0000 -0.0000
vn 0.8660 0.5000 -0.0000
vn 0.5000 0.8660 -0.0000
vn -0.0000 1.0000 -0.0000
vn -0.5000 0.8660 -0.0000
vn -0.8660 0.5000 -0.0000
vn -1.0000 -0.0000 -0.0000
vn -0.8660 -0.5000 -0.0000
vn -0.5000 -0.8660 -0.0000
vn 0.5726 -0.0000 0.8199
vn -0.0000 -0.0000 1.0000
vn -0.5726 -0.0000 0.8199
vn -0.9035 -0.0000 0.4286
vn 0.9778 -0.0000 0.2096
vn 0.9035 -0.0000 0.4286
vn -0.9778 -0.0000 0.2096
vn -0.0000 -0.0000 -1.0000
vn 0.5726 -0.0000 -0.8199
vn 0.9035 -0.0000 -0.4286
vn 0.9778 -0.0000 -0.2096
vn -0.9778 -0.0000 -0.2096
vn -0.9035 -0.0000 -0.4286
vn -0.5726 -0.0000 -0.8199
vt 0.310583 0.000000
vt 0.310583 1.000000
vt 0.284701 1.000000
vt 0.284701 0.000000
vt 0.258819 1.000000
vt 0.258819 0.000000
vt 0.232937 1.000000
vt 0.232937 0.000000
vt 0.207055 1.000000
vt 0.207055 0.000000
vt 0.181173 1.000000
vt 0.181173 0.000000
vt 0.155291 1.000000
vt 0.155291 0.000000
vt 0.129409 1.000000
vt 0.129409 0.000000
vt 0.103528 1.000000
vt 0.103528 0.000000
vt 0.077646 1.000000
vt 0.077646 0.000000
vt 0.051764 1.000000
vt 0.051764 0.000000
vt 0.025882 1.000000
vt 0.025882 0.000000
vt -0.000000 1.000000
vt -0.000000 0.000000
vt 0.645002 0.000000
vt 0.645002 0.750000
vt 0.626019 0.750000
vt 0.626019 0.000000
vt 0.607037 0.000000
vt 0.607037 0.750000
vt 0.585943 0.750000
vt 0.585943 0.000000
vt 0.689107 0.000000
vt 0.689107 0.750000
vt 0.666095 0.750000
vt 0.666095 0.000000
vt 0.626019 0.000000
vt 0.562932 0.750000
vt 0.562932 0.000000
vt 0.815281 -0.000000
vt 0.815281 0.750000
vt 0.796298 0.750000
vt 0.796298 0.000000
vt 0.775205 0.750000
vt 0.775205 0.000000
vt 0.752194 0.750000
vt 0.752194 0.000000
vt 0.752194 -0.000000
vt 0.752194 0.750000
vt 0.729183 0.750000
vt 0.729183 -0.000000
vt 0.708089 0.750000
vt 0.708089 -0.000000
vt 0.689107 0.750000
vt 0.689107 -0.000000
vt 0.562932 0.000000
vt 0.562932 0.750000
vt 0.543949 0.750000
vt 0.543949 0.000000
vt 0.522856 0.750000
vt 0.522856 0.000000
vt 0.499845 0.750000
vt 0.499845 0.000000
vt 0.476834 0.750000
vt 0.476834 0.000000
vt 0.455740 0.750000
vt 0.455740 0.000000
vt 0.436757 0.750000
vt 0.436757 0.000000
vt 0.417775 0.750000
vt 0.417775 0.000000
vt 0.396681 0.750000
vt 0.396681 0.000000
vt 0.373670 0.750000
vt 0.373670 0.000000
vt 0.350659 0.750000
vt 0.350659 0.000000
vt 0.329566 0.750000
vt 0.329566 0.000000
vt 0.310583 0.750000
vt 0.310583 0.000000
s 1
f 1/1/1 2/2/1 4/3/2 3/4/2
f 3/4/2 4/3/2 6/5/3 5/6/3
f 5/6/3 6/5/3 8/7/4 7/8/4
f 7/8/4 8/7/4 10/9/5 9/10/5
f 9/10/5 10/9/5 12/11/6 11/12/6
f 11/12/6 12/11/6 14/13/7 13/14/7
f 13/14/7 14/13/7 16/15/8 15/16/8
f 15/16/8 16/15/8 18/17/9 17/18/9
f 17/18/9 18/17/9 20/19/10 19/20/10
f 19/20/10 20/19/10 22/21/11 21/22/11
f 21/22/11 22/21/11 24/23/12 23/24/12
f 23/24/12 24/23/12 2/25/1 1/26/1
f 34/27/13 33/28/13 31/29/14 32/30/14
f 30/31/15 29/32/15 27/33/16 28/34/16
f 46/35/17 45/36/17 35/37/18 36/38/18
f 36/38/18 35/37/18 33/28/13 34/27/13
f 32/39/14 31/29/14 29/32/15 30/31/15
f 28/34/16 27/33/16 25/40/19 26/41/19
f 37/42/20 38/43/20 40/44/21 39/45/21
f 39/45/21 40/44/21 42/46/22 41/47/22
f 41/47/22 42/46/22 44/48/23 43/49/23
f 47/50/24 48/51/24 50/52/25 49/53/25
f 49/53/25 50/52/25 52/54/26 51/55/26
f 51/55/26 52/54/26 38/56/20 37/57/20
f 53/58/20 54/59/20 56/60/21 55/61/21
f 55/61/21 56/60/21 58/62/22 57/63/22
f 57/63/22 58/62/22 60/64/4 59/65/4
f 59/65/4 60/64/4 62/66/18 61/67/18
f 61/67/18 62/66/18 64/68/13 63/69/13
f 63/69/13 64/68/13 66/70/14 65/71/14
f 65/71/14 66/70/14 68/72/15 67/73/15
f 67/73/15 68/72/15 70/74/16 69/75/16
f 69/75/16 70/74/16 72/76/10 71/77/10
f 71/77/10 72/76/10 74/78/25 73/79/25
f 73/79/25 74/78/25 76/80/26 75/81/26
f 75/81/26 76/80/26 54/82/20 53/83/20
