# Blender 4.0.2
# www.blender.org
mtllib Machete.mtl
o FinishedMachete
v -0.200000 3.600000 0.289333
v -0.168864 3.600000 0.367586
v -0.200000 3.893695 0.289501
v -0.155071 3.955072 0.354185
v -0.168864 3.968864 0.291598
v -0.168792 3.893695 0.367686
v -0.200000 3.600000 -0.893695
v -0.168864 3.600000 -0.968864
v -0.200000 3.893695 -0.893695
v -0.155070 3.955070 -0.955070
v -0.168864 3.893695 -0.968864
v -0.168864 3.968864 -0.893695
v 0.200000 3.600000 0.289333
v 0.168864 3.600000 0.367586
v 0.200000 3.893695 0.289501
v 0.155070 3.955070 0.354184
v 0.168864 3.893695 0.366767
v 0.168864 3.968864 0.291598
v 0.200000 3.600000 -0.893695
v 0.168864 3.600000 -0.968864
v 0.200000 3.893695 -0.893695
v 0.168864 3.968864 -0.893695
v 0.155070 3.955070 -0.955070
v 0.168864 3.893695 -0.968864
v -0.200000 3.200000 0.089233
v -0.168864 3.200000 0.167557
v -0.200000 3.200000 -0.893695
v -0.168864 3.200000 -0.968864
v 0.200000 3.200000 0.089233
v 0.168864 3.200000 0.167557
v 0.200000 3.200000 -0.893695
v 0.168864 3.200000 -0.968864
v -0.200000 0.450000 0.089233
v -0.168864 0.450000 0.167557
v -0.200000 0.450000 -0.893695
v -0.168864 0.450000 -0.968864
v 0.200000 0.450000 0.089233
v 0.168864 0.450000 0.167557
v 0.200000 0.450000 -0.893695
v 0.168864 0.450000 -0.968864
v -0.200000 0.050000 0.289333
v -0.168864 0.050000 0.367586
v -0.200000 0.050000 -0.893695
v -0.168864 0.050000 -0.968864
v 0.200000 0.050000 0.289333
v 0.168864 0.050000 0.367586
v 0.200000 0.050000 -0.893695
v 0.168864 0.050000 -0.968864
v -0.200000 -0.343695 0.289501
v -0.168864 -0.418864 0.291598
v -0.155070 -0.405070 0.354184
v -0.168864 -0.343695 0.366767
v -0.200000 -0.343695 -0.893695
v -0.168864 -0.343695 -0.968864
v -0.155070 -0.405070 -0.955070
v -0.168864 -0.418864 -0.893695
v 0.200000 -0.343695 0.289501
v 0.168792 -0.343695 0.367686
v 0.155071 -0.405071 0.354185
v 0.168864 -0.418864 0.291598
v 0.200000 -0.343695 -0.893695
v 0.168864 -0.343695 -0.968864
v 0.155070 -0.405070 -0.955070
v 0.168864 -0.418864 -0.893695
v -0.100000 3.967447 0.367356
v -0.100000 3.893695 0.397287
v -0.100000 3.997388 0.293519
v -0.100000 3.967447 -0.967447
v -0.100000 3.997388 -0.893695
v -0.100000 3.893695 -0.997388
v 0.100000 3.967447 0.368135
v 0.100000 3.997388 0.293519
v 0.100000 3.893695 0.397212
v 0.100000 3.997388 -0.893695
v 0.100000 3.967447 -0.967447
v 0.100000 3.893695 -0.997388
v -0.100000 -0.417447 0.368135
v -0.100000 -0.447388 0.293519
v -0.100000 -0.343695 0.397212
v -0.100000 -0.417447 -0.967447
v -0.100000 -0.343695 -0.997388
v -0.100000 -0.447388 -0.893695
v 0.100000 -0.417447 0.367356
v 0.100000 -0.343695 0.397287
v 0.100000 -0.447388 0.293519
v 0.100000 -0.343695 -0.997388
v 0.100000 -0.417447 -0.967447
v 0.100000 -0.447388 -0.893695
v -0.100000 3.600000 0.397281
v -0.100000 3.600000 -0.997388
v 0.100000 3.600000 -0.997388
v 0.100000 3.600000 0.397281
v 0.100000 3.200000 -0.997388
v -0.100000 3.200000 -0.997388
v -0.100000 3.200000 0.197279
v 0.100000 3.200000 0.197279
v -0.100000 0.450000 0.197279
v 0.100000 0.450000 0.197279
v 0.100000 0.450000 -0.997388
v -0.100000 0.450000 -0.997388
v 0.100000 0.050000 0.397281
v 0.100000 0.050000 -0.997388
v -0.100000 0.050000 -0.997388
v -0.100000 0.050000 0.397281
v 0.000000 3.906000 0.400000
v 0.000000 14.600000 0.400000
v -0.100000 4.000000 -1.000000
v -0.069850 14.450001 -1.000000
v 0.100000 4.000000 -1.000000
v 0.069850 14.450001 -1.000000
v -0.100000 4.000000 -0.300000
v -0.069850 14.450001 0.000000
v 0.100000 4.000000 -0.300000
v 0.069850 14.450001 0.000000
v 0.000000 14.800000 -1.000000
v 0.000000 14.000000 0.700000
v 0.000000 14.800000 0.000000
v -0.100000 14.000000 -1.000000
v 0.100000 14.000000 -1.000000
v 0.100000 14.000000 0.000000
v -0.100000 14.000000 0.000000
v 0.000000 14.300000 0.600000
v 0.100000 3.200000 0.200000
v -0.100000 3.600000 0.400000
v 0.100000 3.600000 0.400000
v -0.100000 3.200000 0.200000
v 0.100000 3.200000 -1.000000
v -0.100000 3.200000 -1.000000
v 0.100000 0.450000 0.200000
v -0.100000 0.450000 0.200000
v 0.100000 0.450000 -1.000000
v -0.100000 0.450000 -1.000000
v 0.100000 0.050000 0.400000
v -0.100000 0.050000 0.400000
v 0.100000 0.050000 -1.000000
v -0.100000 0.050000 -1.000000
v -0.100000 3.906000 0.400000
v -0.100000 4.000000 0.305285
v -0.100000 3.972259 0.372258
v 0.100000 4.000000 0.305285
v 0.100000 3.906000 0.400000
v 0.100000 4.000000 0.305285
v 0.100000 3.972259 0.372258
v 0.100000 -0.355285 0.400000
v 0.100000 -0.450000 0.305285
v 0.100000 -0.422258 0.372258
v -0.100000 -0.450000 0.305285
v -0.100000 -0.355285 0.400000
v -0.100000 -0.422258 0.372258
v 0.100000 -0.450000 -0.905285
v 0.100000 -0.355285 -1.000000
v 0.100000 -0.422258 -0.972259
v -0.100000 -0.355285 -1.000000
v -0.100000 -0.450000 -0.905285
v -0.100000 -0.422258 -0.972259
vn -0.9864 -0.0335 0.1607
vn -0.9808 -0.0000 -0.1951
vn -0.9864 0.0335 0.1607
vn 0.9808 -0.0000 -0.1951
vn 0.9750 -0.0593 0.2142
vn 0.9864 -0.0335 0.1607
vn -0.9751 -0.0594 0.2138
vn -0.9687 0.1783 0.1727
vn -0.9673 0.1794 -0.1794
vn 0.9673 0.1794 -0.1794
vn 0.9686 0.1780 0.1734
vn -0.9750 0.0593 0.2142
vn -0.9673 -0.1794 -0.1794
vn -0.9686 -0.1780 0.1734
vn 0.9864 0.0335 0.1607
vn 0.9751 0.0594 0.2138
vn 0.9687 -0.1783 0.1727
vn 0.9673 -0.1794 -0.1794
vn -0.3731 0.1535 0.9150
vn -0.3377 0.3189 0.8856
vn -0.3727 0.1555 0.9148
vn -0.3628 0.9187 0.1562
vn -0.3634 0.9191 0.1525
vn -0.3318 0.8880 0.3182
vn -0.9240 0.1558 0.3492
vn -0.8930 0.3198 0.3168
vn -0.9209 0.3566 0.1571
vn -0.3256 0.8893 -0.3211
vn -0.3601 0.9197 -0.1565
vn -0.3604 0.9199 -0.1549
vn -0.3604 0.1549 -0.9199
vn -0.3601 0.1565 -0.9197
vn -0.3256 0.3211 -0.8893
vn -0.9194 0.3600 -0.1585
vn -0.8881 0.3251 -0.3251
vn -0.9194 0.1585 -0.3600
vn 0.3800 0.1491 0.9129
vn 0.3797 0.1509 0.9127
vn 0.3479 0.3085 0.8853
vn 0.3637 0.9185 0.1554
vn 0.3336 0.8880 0.3166
vn 0.3642 0.9189 0.1517
vn 0.9211 0.3559 0.1579
vn 0.8930 0.3183 0.3183
vn 0.9235 0.1560 0.3505
vn 0.3601 0.9197 -0.1565
vn 0.3256 0.8893 -0.3211
vn 0.3604 0.9199 -0.1549
vn 0.9194 0.1585 -0.3600
vn 0.8881 0.3251 -0.3251
vn 0.9194 0.3600 -0.1585
vn 0.3256 0.3211 -0.8893
vn 0.3601 0.1565 -0.9197
vn 0.3604 0.1549 -0.9199
vn -0.9211 -0.3559 0.1579
vn -0.8930 -0.3183 0.3183
vn -0.9235 -0.1559 0.3505
vn -0.3336 -0.8880 0.3166
vn -0.3642 -0.9189 0.1517
vn -0.3637 -0.9185 0.1554
vn -0.3479 -0.3085 0.8853
vn -0.3800 -0.1489 0.9129
vn -0.3798 -0.1507 0.9127
vn -0.9194 -0.1585 -0.3600
vn -0.8881 -0.3251 -0.3251
vn -0.9194 -0.3600 -0.1585
vn -0.3256 -0.3211 -0.8893
vn -0.3601 -0.1565 -0.9197
vn -0.3604 -0.1549 -0.9199
vn -0.3604 -0.9199 -0.1549
vn -0.3601 -0.9197 -0.1565
vn -0.3256 -0.8893 -0.3211
vn 0.9240 -0.1558 0.3492
vn 0.8930 -0.3198 0.3168
vn 0.9209 -0.3566 0.1571
vn 0.3377 -0.3189 0.8856
vn 0.3727 -0.1555 0.9148
vn 0.3731 -0.1535 0.9150
vn 0.3634 -0.9191 0.1525
vn 0.3318 -0.8880 0.3182
vn 0.3628 -0.9187 0.1562
vn 0.3601 -0.1565 -0.9197
vn 0.3256 -0.3211 -0.8893
vn 0.3604 -0.1549 -0.9199
vn 0.9194 -0.3600 -0.1585
vn 0.8881 -0.3251 -0.3251
vn 0.9194 -0.1585 -0.3600
vn 0.3256 -0.8893 -0.3211
vn 0.3601 -0.9197 -0.1565
vn 0.3604 -0.9199 -0.1549
vn -0.3857 -0.2251 0.8947
vn -0.3878 -0.2008 0.8996
vn -0.9263 -0.0769 0.3688
vn -0.3827 -0.0000 -0.9239
vn -0.9239 -0.0000 -0.3827
vn 0.9239 -0.0000 -0.3827
vn 0.3827 -0.0000 -0.9239
vn 0.3903 -0.2000 0.8987
vn 0.3880 -0.2243 0.8940
vn 0.9260 -0.0767 0.3697
vn -0.3881 -0.2007 0.8995
vn -0.3860 -0.2250 0.8946
vn -0.9244 -0.1022 0.3676
vn 0.3860 -0.2250 0.8946
vn 0.3881 -0.2007 0.8995
vn 0.9244 -0.1022 0.3676
vn -0.9244 0.1022 0.3676
vn -0.3860 0.2250 0.8946
vn -0.3881 0.2007 0.8995
vn 0.9244 0.1022 0.3676
vn 0.3860 0.2250 0.8946
vn 0.3881 0.2007 0.8995
vn 0.3857 0.2251 0.8948
vn 0.3878 0.2008 0.8996
vn 0.9263 0.0769 0.3688
vn -0.3880 0.2245 0.8939
vn -0.3903 0.2002 0.8987
vn -0.9260 0.0767 0.3697
vn 0.9904 0.1244 0.0609
vn 0.9843 0.1247 0.1251
vn 0.9884 0.0667 0.1364
vn -0.9913 0.1316 -0.0000
vn -0.9904 0.1244 0.0609
vn -0.9799 0.1956 0.0405
vn -0.9807 0.1957 -0.0000
vn -0.9843 0.1247 0.1251
vn 1.0000 -0.0000 -0.0000
vn -0.9884 0.0667 0.1364
vn -0.9900 -0.0042 0.1411
vn -0.9900 0.0236 0.1389
vn -0.9971 0.0302 0.0700
vn -0.9974 -0.0022 0.0723
vn 0.9913 0.1316 -0.0000
vn 0.9807 0.1957 -0.0000
vn 0.9799 0.1956 0.0405
vn -0.0000 -0.0000 -1.0000
vn 0.9974 -0.0022 0.0723
vn 0.9971 0.0302 0.0700
vn 0.9900 0.0236 0.1389
vn 0.9900 -0.0042 0.1411
vn 0.9994 0.0334 -0.0000
vn -0.9994 0.0334 -0.0000
vn -1.0000 -0.0000 -0.0000
vn -0.0000 -0.2298 0.9732
vn -0.0000 0.2298 0.9732
vn -0.0000 -0.1951 0.9808
vn -0.0000 -0.9808 -0.1951
vn -0.0000 -0.9808 0.1951
vn -0.0000 -0.1951 -0.9808
vn -0.0000 0.1970 0.9804
vn -0.0000 1.0000 -0.0000
vn -0.0000 0.3862 0.9224
vn -0.0000 -0.9239 -0.3827
vn -0.0000 -0.3827 -0.9239
vn -0.0000 -0.9239 0.3827
vn -0.0000 -0.3827 0.9239
vn -0.0000 0.9808 0.1951
vn -0.0000 0.9239 0.3827
vt 0.927345 0.172628
vt 0.736855 0.176488
vt 0.734653 0.709855
vt 0.927382 0.715220
vt 0.739106 0.100670
vt 0.954052 0.093668
vt 0.927940 0.172167
vt 0.736804 0.176512
vt 0.953623 0.093288
vt 0.947570 0.042250
vt 0.743867 0.048513
vt 0.739023 0.100602
vt 0.744088 0.048464
vt 0.947838 0.042458
vt 0.953828 0.794675
vt 0.735992 0.785963
vt 0.742007 0.856375
vt 0.945364 0.863804
vt 0.926790 0.714671
vt 0.734641 0.709900
vt 0.953474 0.794914
vt 0.735891 0.786010
vt 0.945126 0.863828
vt 0.741826 0.856354
vt 0.975048 0.035227
vt 0.965739 0.021812
vt 0.958786 0.029738
vt 0.961871 0.040075
vt 0.951116 0.014643
vt 0.947912 0.028167
vt 0.732772 0.036410
vt 0.743395 0.034510
vt 0.739900 0.020830
vt 0.725614 0.028691
vt 0.716792 0.042305
vt 0.730027 0.046817
vt 0.975922 0.035807
vt 0.961974 0.040577
vt 0.959186 0.029994
vt 0.966438 0.021983
vt 0.951487 0.014725
vt 0.948239 0.028343
vt 0.743556 0.034480
vt 0.732921 0.036432
vt 0.725724 0.028722
vt 0.740017 0.020786
vt 0.730207 0.046897
vt 0.716946 0.042389
vt 0.945693 0.877958
vt 0.956688 0.876379
vt 0.959583 0.865783
vt 0.948849 0.891607
vt 0.963885 0.884468
vt 0.973511 0.870701
vt 0.728045 0.857812
vt 0.730679 0.868336
vt 0.741333 0.870386
vt 0.714683 0.862212
vt 0.723395 0.876013
vt 0.737675 0.884070
vt 0.959528 0.866062
vt 0.956360 0.876435
vt 0.945427 0.877958
vt 0.963289 0.884439
vt 0.972740 0.871025
vt 0.948566 0.891525
vt 0.727895 0.857902
vt 0.730561 0.868380
vt 0.723314 0.876071
vt 0.714554 0.862315
vt 0.741209 0.870380
vt 0.737595 0.884058
vt 0.968588 0.091351
vt 0.983032 0.091122
vt 0.723683 0.099537
vt 0.709255 0.098358
vt 0.723692 0.099543
vt 0.709276 0.098341
vt 0.983049 0.091757
vt 0.969071 0.091806
vt 0.721092 0.176234
vt 0.706634 0.175960
vt 0.721130 0.176238
vt 0.706675 0.175970
vt 0.943640 0.171545
vt 0.958255 0.172488
vt 0.958439 0.172102
vt 0.943889 0.171149
vt 0.943435 0.716237
vt 0.958347 0.715283
vt 0.943185 0.715748
vt 0.958157 0.714797
vt 0.718902 0.710004
vt 0.704451 0.710133
vt 0.718922 0.709980
vt 0.704468 0.710109
vt 0.968580 0.796827
vt 0.983049 0.796969
vt 0.720515 0.786861
vt 0.706061 0.787789
vt 0.720526 0.786846
vt 0.706079 0.787783
vt 0.968988 0.796528
vt 0.983032 0.796535
vt 0.068903 0.966049
vt 0.031738 0.983169
vt 0.010919 0.955675
vt 0.171426 0.957684
vt 0.261235 0.965391
vt 0.258943 0.998500
vt 0.165530 0.989919
vt 0.297909 0.982192
vt 0.611817 0.029720
vt 0.501337 0.157587
vt 0.497149 0.145480
vt 0.496925 0.143908
vt 0.498207 0.141843
vt 0.510381 0.060360
vt 0.510256 0.051985
vt 0.519365 0.040287
vt 0.318522 0.955003
vt 0.303647 0.000148
vt 0.329251 0.927197
vt 0.263859 0.923960
vt 0.238694 0.008663
vt 0.159056 0.957792
vt 0.071373 0.999852
vt 0.090797 0.008671
vt 0.066068 0.924259
vt 0.000148 0.927614
vt 0.025815 0.000148
vt 0.173960 0.008632
vt 0.174371 0.918070
vt 0.156355 0.918071
vt 0.155543 0.008640
vt 0.504796 0.539335
vt 0.483972 0.722766
vt 0.344491 0.621159
vt 0.496554 0.503653
vt 0.661757 0.618814
vt 0.521327 0.501863
vt 0.509233 0.195999
vt 0.661757 0.086055
vt 0.525890 0.720980
vt 0.512813 0.539578
vt 0.345386 0.967636
vt 0.345386 0.939085
vt 0.459588 0.939085
vt 0.459588 0.967636
vt 0.484328 0.197871
vt 0.491261 0.157996
vt 0.852158 0.939085
vt 0.852158 0.967636
vt 0.338243 0.083383
vt 0.388555 0.027234
vt 0.909259 0.939085
vt 0.909259 0.967636
vt 0.493102 0.145516
vt 0.489415 0.059600
vt 0.491464 0.141998
vt 0.481470 0.040605
vt 0.489647 0.050782
vt 0.493088 0.143845
vt 0.967114 0.939085
vt 0.967114 0.967636
vt 0.509848 0.546595
vt 0.507085 0.546288
vt 0.507176 0.547358
vt 0.506287 0.548617
vt 0.957116 0.938614
vt 0.967114 0.938614
vt 0.957121 0.938624
vt 0.509651 0.547665
vt 0.510384 0.548898
s 1
usemtl Material
f 25/1/1 27/2/2 35/3/2 33/4/3
f 19/5/4 13/6/5 29/7/6 31/8/4
f 1/9/7 3/10/8 9/11/9 7/12/2
f 19/5/4 21/13/10 15/14/11 13/6/5
f 41/15/12 43/16/2 53/17/13 49/18/14
f 31/8/4 29/7/6 37/19/15 39/20/4
f 33/4/3 35/3/2 43/16/2 41/15/12
f 39/20/4 37/19/15 45/21/16 47/22/4
f 47/22/4 45/21/16 57/23/17 61/24/18
f 66/25/19 65/26/20 4/27/20 6/28/21
f 67/29/22 5/30/23 4/27/24 65/26/24
f 3/10/8 6/28/25 4/27/26 5/30/27
f 10/31/28 12/32/29 69/33/30 68/34/28
f 70/35/31 11/36/32 10/31/33 68/34/33
f 9/11/9 12/32/34 10/31/35 11/36/36
f 73/37/37 17/38/38 16/39/39 71/40/39
f 72/41/40 71/40/41 16/39/41 18/42/42
f 15/14/11 18/42/43 16/39/44 17/38/45
f 22/43/46 23/44/47 75/45/47 74/46/48
f 21/13/10 24/47/49 23/44/50 22/43/51
f 75/45/52 23/44/52 24/47/53 76/48/54
f 49/18/14 50/49/55 51/50/56 52/51/57
f 51/50/58 50/49/59 78/52/60 77/53/58
f 77/53/61 79/54/62 52/51/63 51/50/61
f 53/17/13 54/55/64 55/56/65 56/57/66
f 55/56/67 54/55/68 81/58/69 80/59/67
f 82/60/70 56/57/71 55/56/72 80/59/72
f 57/23/17 58/61/73 59/62/74 60/63/75
f 83/64/76 59/62/76 58/61/77 84/65/78
f 60/63/79 59/62/80 83/64/80 85/66/81
f 62/67/82 63/68/83 87/69/83 86/70/84
f 61/24/18 64/71/85 63/68/86 62/67/87
f 87/69/88 63/68/88 64/71/89 88/72/90
f 6/28/21 2/73/91 89/74/92 66/25/19
f 2/73/93 6/28/25 3/10/8 1/9/7
f 12/32/29 5/30/23 67/29/22 69/33/30
f 5/30/27 12/32/34 9/11/9 3/10/8
f 8/75/94 11/36/32 70/35/31 90/76/94
f 11/36/36 8/75/95 7/12/2 9/11/9
f 21/13/10 19/5/4 20/77/96 24/47/49
f 76/48/54 24/47/53 20/77/97 91/78/97
f 72/41/40 18/42/42 22/43/46 74/46/48
f 22/43/51 18/42/43 15/14/11 21/13/10
f 92/79/98 14/80/99 17/38/38 73/37/37
f 17/38/45 14/80/100 13/6/5 15/14/11
f 19/5/4 31/8/4 32/81/96 20/77/96
f 91/78/97 20/77/97 32/81/97 93/82/97
f 27/2/2 7/12/2 8/75/95 28/83/95
f 28/83/94 8/75/94 90/76/94 94/84/94
f 2/73/91 26/85/101 95/86/102 89/74/92
f 26/85/103 2/73/93 1/9/7 25/1/1
f 96/87/104 30/88/105 14/80/99 92/79/98
f 14/80/100 30/88/106 29/7/6 13/6/5
f 25/1/1 33/4/3 34/89/107 26/85/103
f 97/90/108 95/86/102 26/85/101 34/89/109
f 37/19/15 29/7/6 30/88/106 38/91/110
f 98/92/111 38/91/112 30/88/105 96/87/104
f 31/8/4 39/20/4 40/93/96 32/81/96
f 32/81/97 40/93/97 99/94/97 93/82/97
f 35/3/2 27/2/2 28/83/95 36/95/95
f 36/95/94 28/83/94 94/84/94 100/96/94
f 46/97/113 38/91/112 98/92/111 101/98/114
f 38/91/110 46/97/115 45/21/16 37/19/15
f 99/94/97 40/93/97 48/99/97 102/100/97
f 48/99/96 40/93/96 39/20/4 47/22/4
f 44/101/94 36/95/94 100/96/94 103/102/94
f 36/95/95 44/101/95 43/16/2 35/3/2
f 34/89/109 42/103/116 104/104/117 97/90/108
f 42/103/118 34/89/107 33/4/3 41/15/12
f 50/49/59 56/57/71 82/60/70 78/52/60
f 56/57/66 50/49/55 49/18/14 53/17/13
f 88/72/90 64/71/89 60/63/79 85/66/81
f 60/63/75 64/71/85 61/24/18 57/23/17
f 58/61/77 46/97/113 101/98/114 84/65/78
f 46/97/115 58/61/73 57/23/17 45/21/16
f 102/100/97 48/99/97 62/67/82 86/70/84
f 62/67/87 48/99/96 47/22/4 61/24/18
f 54/55/68 44/101/94 103/102/94 81/58/69
f 44/101/95 54/55/64 53/17/13 43/16/2
f 42/103/116 52/51/63 79/54/62 104/104/117
f 52/51/57 42/103/118 41/15/12 49/18/14
f 1/9/7 7/12/2 27/2/2 25/1/1
f 114/105/119 106/106/120 122/107/121
f 108/108/122 112/109/123 117/110/124 115/111/125
f 112/109/123 106/112/126 117/110/124
f 135/113/127 133/114/127 144/115/127 146/116/127 145/117/127 150/118/127 152/119/127 151/120/127
f 122/121/128 106/112/126 112/109/123
f 105/122/129 116/123/130 121/124/131 111/125/132
f 114/105/119 110/126/133 115/111/134 117/127/135
f 106/106/120 114/105/119 117/127/135
f 110/126/136 108/108/136 115/111/136
f 113/128/137 120/129/138 116/130/139 105/131/140
f 107/132/136 118/133/136 119/134/136 109/135/136
f 116/123/130 122/121/128 112/109/123 121/124/131
f 119/134/141 110/126/133 114/105/119 120/129/138
f 120/129/138 114/105/119 122/107/121 116/130/139
f 118/133/136 108/108/136 110/126/136 119/134/136
f 121/124/131 112/109/123 108/108/122 118/133/142
f 124/136/143 107/137/143 128/138/143 126/139/143
f 127/140/127 123/141/127 129/142/127 131/143/127
f 109/144/127 125/145/127 123/141/127 127/140/127
f 125/145/144 124/136/144 126/139/144 123/141/144
f 107/146/136 109/147/136 127/148/136 128/149/136
f 129/142/145 130/150/145 134/151/145 133/114/145
f 128/149/136 127/148/136 131/152/136 132/153/136
f 126/139/143 128/138/143 132/154/143 130/150/143
f 123/141/144 126/139/144 130/150/145 129/142/145
f 130/150/143 132/154/143 136/155/143 134/151/143
f 132/153/136 131/152/136 135/156/136 136/157/136
f 131/143/127 129/142/127 133/114/127 135/113/127
f 133/114/145 134/151/145 148/158/146 144/115/146
f 154/159/147 150/118/147 145/117/148 147/160/148
f 134/151/143 136/155/143 153/161/143 155/162/143 154/159/143 147/160/143 149/163/143 148/158/143
f 136/157/136 135/156/136 151/164/149 153/165/149
f 141/166/150 137/167/150 124/136/144 125/145/144
f 137/167/143 139/168/143 138/169/143
f 140/170/151 143/171/151 142/172/151
f 143/173/127 141/166/127 142/174/127
f 137/167/150 141/166/150 143/173/152 139/168/152
f 150/118/147 154/159/147 155/162/153 152/119/153
f 152/119/154 155/162/154 153/161/149 151/120/149
f 147/160/148 145/117/148 146/116/155 149/163/155
f 149/163/156 146/116/156 144/115/146 148/158/146
f 107/132/143 111/125/132 121/124/131 118/133/142
f 142/174/157 138/169/157 139/168/158 143/173/158
f 109/135/127 119/134/141 120/129/138 113/128/137
f 109/144/151 107/137/151 138/169/157 142/174/157
f 124/136/143 137/167/143 138/169/143 107/137/143
f 109/144/127 142/174/127 141/166/127 125/145/127
